<?xml version="1.0" encoding="UTF-8" standalone="no"?><!DOCTYPE svg PUBLIC "-//W3C//DTD SVG 1.1//EN" "http://www.w3.org/Graphics/SVG/1.1/DTD/svg11.dtd"><svg width="100%" height="100%" viewBox="0 0 50 50" version="1.1" xmlns="http://www.w3.org/2000/svg" xmlns:xlink="http://www.w3.org/1999/xlink" xml:space="preserve" xmlns:serif="http://www.serif.com/" style="fill-rule:evenodd;clip-rule:evenodd;stroke-linejoin:round;stroke-miterlimit:2;"><path d="M26.161,9.023l2.355,7.306c0.054,0.164 0.209,0.276 0.382,0.276c0.075,0 0.149,-0.021 0.213,-0.061l6.505,-4.083c0.064,-0.04 0.138,-0.062 0.214,-0.062c0.218,0 0.398,0.18 0.398,0.398c-0,0.053 -0.01,0.104 -0.03,0.152l-2.892,7.113c-0.018,0.047 -0.028,0.097 -0.028,0.148c0,0.2 0.151,0.371 0.35,0.395l7.604,1.054c0.195,0.028 0.342,0.197 0.342,0.394c-0,0.147 -0.081,0.282 -0.21,0.351l-6.785,3.592c-0.131,0.068 -0.213,0.204 -0.213,0.351c0,0.098 0.037,0.193 0.103,0.266l5.141,5.696c0.057,0.071 0.089,0.16 0.089,0.251c-0,0.219 -0.18,0.399 -0.399,0.399c-0.024,-0 -0.049,-0.003 -0.073,-0.007l-7.505,-1.607c-0.027,-0.005 -0.055,-0.008 -0.083,-0.008c-0.219,-0 -0.399,0.179 -0.399,0.398c0,0.004 0,0.008 0.001,0.012l0.285,7.672c0.001,0.006 0.001,0.011 0.001,0.017c-0,0.218 -0.18,0.398 -0.399,0.398c-0.123,0 -0.239,-0.057 -0.315,-0.155l-4.713,-6.059c-0.075,-0.102 -0.194,-0.163 -0.321,-0.163c-0.127,0 -0.246,0.061 -0.321,0.163l-4.713,6.059c-0.076,0.098 -0.192,0.155 -0.316,0.155c-0.218,0 -0.398,-0.18 -0.398,-0.398c-0,-0.006 0,-0.011 0,-0.017l0.283,-7.672c0,-0.004 0,-0.008 0,-0.012c0,-0.219 -0.18,-0.398 -0.398,-0.398c-0.028,-0 -0.056,0.003 -0.084,0.008l-7.505,1.607c-0.023,0.004 -0.046,0.006 -0.069,0.006c-0.219,-0 -0.398,-0.18 -0.398,-0.399c-0,-0.091 0.031,-0.179 0.088,-0.25l5.14,-5.696c0.066,-0.073 0.102,-0.168 0.102,-0.265c-0,-0.147 -0.081,-0.283 -0.211,-0.352l-6.785,-3.592c-0.133,-0.067 -0.218,-0.204 -0.218,-0.353c0,-0.199 0.151,-0.369 0.35,-0.392l7.62,-1.044c0.199,-0.023 0.351,-0.193 0.351,-0.393c0,-0.051 -0.01,-0.102 -0.03,-0.15l-2.891,-7.113c-0.02,-0.048 -0.03,-0.1 -0.03,-0.152c-0,-0.218 0.18,-0.398 0.398,-0.398c0.076,-0 0.15,0.021 0.214,0.062l6.486,4.073c0.064,0.04 0.137,0.061 0.212,0.061c0.173,0 0.326,-0.112 0.379,-0.276l2.358,-7.306c0.048,-0.172 0.206,-0.292 0.384,-0.292c0.179,0 0.337,0.12 0.384,0.292Z" style="fill:#458bc9;fill-rule:nonzero;"/><path d="M25.785,46.959l-0.356,0c-12.327,-0.2 -22.358,-10.395 -22.358,-22.724c0,-9.289 5.695,-17.683 14.326,-21.117c0.129,-0.051 0.267,-0.077 0.406,-0.077c0.605,-0 1.103,0.497 1.103,1.102c-0,0.451 -0.277,0.859 -0.696,1.025c-7.789,3.101 -12.928,10.678 -12.928,19.061c0,11.256 9.262,20.517 20.517,20.517c8.33,0 15.869,-5.073 19.006,-12.79c0.168,-0.415 0.574,-0.688 1.021,-0.688c0.605,-0 1.103,0.497 1.103,1.102c-0,0.142 -0.027,0.283 -0.081,0.415c-3.478,8.55 -11.832,14.172 -21.063,14.174Z" style="fill:#002e52;fill-rule:nonzero;"/></svg>