<svg xmlns="http://www.w3.org/2000/svg" viewBox="0 0 214.15 460.79"><defs><style>.cls-1{fill:#ffd300;}.cls-2{fill:#f19001;}.cls-3{fill:none;}.cls-4{fill:#bd1823;}.cls-5{fill:#e42313;}.cls-6{fill:#0070ba;}.cls-7{fill:#fff;}.cls-8{fill:#37a6de;}.cls-9{fill:#1d1e1c;}.cls-10{fill:#1c5e96;}.cls-11{fill:#e71e6c;}.cls-12{fill:#e6533a;}.cls-13{fill:#9b9a9a;}</style></defs><g id="Calque_2" data-name="Calque 2"><g id="Calque_1-2" data-name="Calque 1"><path class="cls-1" d="M62.35,136.09c-4.06,31.23-12.86,70.5-21.85,87.22-.75,27.42-1.4,42.79-11.66,64l-6.93-12.52a66.24,66.24,0,0,1-6.57-17.63C13,246.7,10,230,10.23,215a4.27,4.27,0,0,1-1.38-4,4,4,0,0,1,1.73-2.74c2.24-26.59,8-39.69,17.8-54a11.49,11.49,0,0,1-.48-2.51c-.4-5.41,3.06-10.17,7.72-10.63a7.78,7.78,0,0,1,6.24,2.32C48.41,139.37,55.89,136.4,62.35,136.09Z"/><path class="cls-2" d="M38.46,224.38c-1.67,0-4.76-.78-8.65-5.28a.93.93,0,0,1,1.41-1.22c4.85,5.62,7.89,4.58,7.91,4.57a.93.93,0,0,1,1.2.52.9.9,0,0,1-.49,1.19A3.54,3.54,0,0,1,38.46,224.38Z"/><path class="cls-2" d="M47.13,212.92a1.57,1.57,0,0,1-1.1-.45c-15.34-15.35-17.54-29.14-17.48-36,0-5.07,1-14.87,6.92-23.58,6.3-9.26,16.41-14.94,30-16.88a1.55,1.55,0,1,1,.43,3.06c-30.7,4.37-34.21,27.63-34.29,37.42,0,6.37,2,19.23,16.57,33.78a1.55,1.55,0,0,1-1.09,2.64Z"/><path class="cls-3" d="M27.65,266.27a.84.84,0,0,0-1,.67s-.08.49-.2,1.29l1-1.18s-.26,1.71-.59,4.19a5.51,5.51,0,0,1-3.81,4.69,12.74,12.74,0,0,1-4.05.69l-.71.81a14.77,14.77,0,0,0,4.76-.65A8.53,8.53,0,0,0,24.8,276a6.15,6.15,0,0,0,3-4.68c.32-2.45.59-4.15.59-4.17A.81.81,0,0,0,27.65,266.27ZM34,262.81c-1.93-1.13-5.37-3.25-9.5-5.49C18.66,254.17,5.76,255.59,4,268,2.5,278.58.94,289.55.94,289.55s4.69,1.11,6.81-.27a4.87,4.87,0,0,0,1.81-2.86,4.84,4.84,0,0,0,.16-.7s0,.06,0,.09l0-.1v0l0-.1a.61.61,0,0,1,0-.15c0-.1,0-.18,0-.23a.08.08,0,0,0,0,0h0v0l1.35-9.5a29.93,29.93,0,0,0,7.91,1l.74-.82a28,28,0,0,1-8.4-1l-1-.27L8.87,285.67a6.21,6.21,0,0,1-.18.75,4.1,4.1,0,0,1-1.43,2.21c-1.24.8-3.85.56-5.37.29l3-20.79C5.7,262.08,9.21,259.27,12,258a14.27,14.27,0,0,1,12,0c3.22,1.74,6,3.4,8,4.6l1.47.88c6.69,3.93,5.59,11.69,4.2,21.5l-1.85,13a2.23,2.23,0,0,1-.73,1.44,1.69,1.69,0,0,1-1.4.39,2.09,2.09,0,0,1-2.1-2.36l1.52-10.74a.81.81,0,0,0-.73-.89.84.84,0,0,0-1,.69l-2.35,16.54c-.77,5.43-1.42,6.47-3.87,6.17s-2.51-2.15-2.48-2.53l3-20.9a.81.81,0,0,0-.74-.89.85.85,0,0,0-1,.69L20.7,309.16c-.48,3.06-1.54,3.47-3.59,3.22-1.52-.19-2.86-.8-2.42-3.95l.57-4,2.55-18,.22-1.55a.81.81,0,0,0-.73-.89.84.84,0,0,0-1,.68l-.25,1.76-2.5,17.66a2.38,2.38,0,0,1-2.81,1C7.94,304.39,8.14,303,8.42,301l1.9-13.39h0l.17-1.17,0-.1-.1.1-.93,1.07L7.59,300.8c-.29,2-.65,4.19,3,5a3.21,3.21,0,0,0,3.85-1.53l-.05.37-.52,3.66c-.41,2.85.47,4.51,3.15,4.84s4-.56,4.54-3.89l.37-2.59c0,.41-.05,2.94,3.21,3.35,3.56.44,4.14-2,4.84-6.86l.82-5.8a2.93,2.93,0,0,0,2.84,3.25,2.72,2.72,0,0,0,3.09-2.52l1.81-12.76C39.93,275.39,41.17,267.05,34,262.81Zm-12,43.87v-.05l3-20.91m-7.69-1L17,286.42,14.42,304.3l-.05.37m17.93-18-1.52,10.74"/><path class="cls-4" d="M27.65,266.27a.84.84,0,0,0-1,.67s-.08.49-.2,1.29l-.4,2.91a4.59,4.59,0,0,1-2.21,3.54,6.59,6.59,0,0,1-.75.38v.87a12.74,12.74,0,0,1-4.05.69l-.71.81a14.77,14.77,0,0,0,4.76-.65A8.53,8.53,0,0,0,24.8,276a6.15,6.15,0,0,0,3-4.68c.32-2.45.59-4.15.59-4.17A.81.81,0,0,0,27.65,266.27Zm6.77-4.14L33,261.27c-2-1.22-4.83-2.88-8.08-4.65-3.72-2-9.32-2-13.63-.06-3.17,1.45-7.14,4.61-8.1,11.37L0,290.15l.73.17c.52.12,5.13,1.16,7.5-.39l0,0L6.73,300.78c-.27,1.92-.68,4.82,3.64,5.82a4.69,4.69,0,0,0,2.89-.17L13,308.22c-.49,3.43.82,5.36,3.89,5.74A7.86,7.86,0,0,0,18,314c2.49,0,3.83-1.33,4.38-4.29A4.85,4.85,0,0,0,25,310.83c4.63.57,5.17-3.19,5.79-7.54l.39-2.78a4.47,4.47,0,0,0,2.31.91,3.55,3.55,0,0,0,2.78-.79,3.81,3.81,0,0,0,1.26-2.41l1.85-13a79.77,79.77,0,0,0,1.05-10.7C40.45,269.24,39.12,264.9,34.42,262.13Zm-.69,37.71a2.09,2.09,0,0,1-2.1-2.36l1.52-10.74a.81.81,0,0,0-.73-.89.84.84,0,0,0-1,.69l-2.35,16.54c-.77,5.43-1.42,6.47-3.87,6.17s-2.51-2.15-2.48-2.53l3-20.9a.81.81,0,0,0-.74-.89.85.85,0,0,0-1,.69L20.7,309.16c-.48,3.06-1.54,3.47-3.59,3.22-1.52-.19-2.86-.8-2.42-3.95l.57-4,2.55-18,.22-1.55a.81.81,0,0,0-.73-.89.84.84,0,0,0-1,.68l-.25,1.76-2.5,17.66a2.38,2.38,0,0,1-2.81,1C7.94,304.39,8.14,303,8.42,301l1.9-13.39h0l.17-1.17,0-.1.06-.45c.06-.35.08-.59.09-.69l1.22-8.57a30.88,30.88,0,0,0,6.48.82,14.77,14.77,0,0,0,4.76-.65A8.53,8.53,0,0,0,24.8,276a6.15,6.15,0,0,0,3-4.68c.32-2.45.59-4.15.59-4.17a.81.81,0,0,0-.72-.9.84.84,0,0,0-1,.67s-.08.49-.2,1.29l-.4,2.91a4.59,4.59,0,0,1-2.21,3.54,6.59,6.59,0,0,1-.75.38,10.28,10.28,0,0,1-3.31.74,28,28,0,0,1-8.4-1l-1-.27L8.87,285.67a6.21,6.21,0,0,1-.18.75,4.1,4.1,0,0,1-1.43,2.21c-1.24.8-3.85.56-5.37.29l3-20.79C5.7,262.08,9.21,259.27,12,258a14.27,14.27,0,0,1,12,0c3.22,1.74,6,3.4,8,4.6l1.47.88c6.69,3.93,5.59,11.69,4.2,21.5l-1.85,13a2.23,2.23,0,0,1-.73,1.44A1.69,1.69,0,0,1,33.73,299.84Zm-6.08-33.57a.84.84,0,0,0-1,.67s-.08.49-.2,1.29l-.4,2.91a4.59,4.59,0,0,1-2.21,3.54,6.59,6.59,0,0,1-.75.38v1.72A8.53,8.53,0,0,0,24.8,276a6.15,6.15,0,0,0,3-4.68c.32-2.45.59-4.15.59-4.17A.81.81,0,0,0,27.65,266.27Z"/><path class="cls-5" d="M37.71,285l-1.85,13a2.23,2.23,0,0,1-.73,1.44,1.69,1.69,0,0,1-1.4.39,2.09,2.09,0,0,1-2.1-2.36l1.52-10.74a.81.81,0,0,0-.73-.89.84.84,0,0,0-1,.69l-2.35,16.54c-.77,5.43-1.42,6.47-3.87,6.17s-2.51-2.15-2.48-2.53l3-20.9a.81.81,0,0,0-.74-.89.85.85,0,0,0-1,.69L20.7,309.16c-.48,3.06-1.54,3.47-3.59,3.22-1.52-.19-2.86-.8-2.42-3.95l.57-4,2.55-18,.22-1.55a.81.81,0,0,0-.73-.89.84.84,0,0,0-1,.68l-.25,1.76-2.5,17.66a2.38,2.38,0,0,1-2.81,1C7.94,304.39,8.14,303,8.42,301l1.9-13.39h0l.17-1.17,0-.1.06-.45c.06-.35.08-.59.09-.69l1.22-8.57a30.88,30.88,0,0,0,6.48.82,14.77,14.77,0,0,0,4.76-.65A8.53,8.53,0,0,0,24.8,276a6.15,6.15,0,0,0,3-4.68c.32-2.45.59-4.15.59-4.17a.81.81,0,0,0-.72-.9.84.84,0,0,0-1,.67s-.08.49-.2,1.29l-.4,2.91a4.59,4.59,0,0,1-2.21,3.54,6.59,6.59,0,0,1-.75.38,10.28,10.28,0,0,1-3.31.74,28,28,0,0,1-8.4-1l-1-.27L8.87,285.67a6.21,6.21,0,0,1-.18.75,4.1,4.1,0,0,1-1.43,2.21c-1.24.8-3.85.56-5.37.29l3-20.79C5.7,262.08,9.21,259.27,12,258a14.27,14.27,0,0,1,12,0c3.22,1.74,6,3.4,8,4.6l1.47.88C40.2,267.42,39.1,275.18,37.71,285Z"/><circle class="cls-2" cx="108.13" cy="150.96" r="39.9"/><path class="cls-1" d="M151.8,136.09c4.06,31.23,12.86,70.5,21.85,87.22.75,27.42,1.4,42.79,11.66,64l6.93-12.52a66.24,66.24,0,0,0,6.57-17.63c2.33-10.44,5.37-27.14,5.11-42.15a4.27,4.27,0,0,0,1.38-4,4,4,0,0,0-1.73-2.74c-2.24-26.59-8-39.69-17.8-54a11.49,11.49,0,0,0,.48-2.51c.4-5.41-3.06-10.17-7.72-10.63a7.74,7.74,0,0,0-6.23,2.32C165.74,139.37,158.26,136.4,151.8,136.09Z"/><path class="cls-2" d="M175.69,224.38a3.54,3.54,0,0,1-1.38-.22.93.93,0,0,1,.71-1.71c.09,0,3.12,1,7.91-4.57a.93.93,0,0,1,1.41,1.22C180.45,223.6,177.36,224.38,175.69,224.38Z"/><path class="cls-2" d="M167,212.92a1.55,1.55,0,0,1-1.09-2.64c14.54-14.55,16.63-27.41,16.57-33.78-.08-9.79-3.59-33.05-34.29-37.42a1.55,1.55,0,1,1,.43-3.06c13.63,1.94,23.74,7.62,30,16.88,5.92,8.71,6.88,18.51,6.92,23.58.06,6.85-2.14,20.64-17.48,36A1.55,1.55,0,0,1,167,212.92Z"/><path class="cls-3" d="M186.5,266.27a.84.84,0,0,1,1,.67s.08.49.2,1.29l-1-1.18s.26,1.71.59,4.19a5.51,5.51,0,0,0,3.81,4.69,12.74,12.74,0,0,0,4.05.69l.71.81a14.77,14.77,0,0,1-4.76-.65,8.53,8.53,0,0,1-1.68-.76,6.18,6.18,0,0,1-3-4.68c-.32-2.45-.58-4.15-.58-4.17A.8.8,0,0,1,186.5,266.27Zm-6.31-3.46c1.93-1.13,5.37-3.25,9.5-5.49,5.8-3.15,18.7-1.73,20.47,10.71,1.49,10.55,3.05,21.52,3.05,21.52s-4.68,1.11-6.81-.27a4.91,4.91,0,0,1-1.81-2.86,6.68,6.68,0,0,1-.16-.7s0,.06,0,.09l0-.1v0l0-.1a.61.61,0,0,0,0-.15c0-.1,0-.18,0-.23a.08.08,0,0,1,0,0h0v0L203,275.6a29.93,29.93,0,0,1-7.91,1l-.73-.82a28,28,0,0,0,8.39-1l1-.27,1.58,11.11a6.35,6.35,0,0,0,.19.75,4.08,4.08,0,0,0,1.42,2.21c1.24.8,3.85.56,5.37.29l-2.95-20.79c-.86-6.05-4.37-8.86-7.16-10.14a14.27,14.27,0,0,0-12,0c-3.21,1.74-6,3.4-8,4.6l-1.47.88c-6.69,3.93-5.59,11.69-4.19,21.5l1.84,13a2.23,2.23,0,0,0,.73,1.44,1.69,1.69,0,0,0,1.4.39,2.09,2.09,0,0,0,2.1-2.36L181,286.74a.81.81,0,0,1,.74-.89.84.84,0,0,1,.95.69L185,303.08c.77,5.43,1.42,6.47,3.87,6.17s2.51-2.15,2.48-2.53l-3-20.9a.81.81,0,0,1,.74-.89.85.85,0,0,1,1,.69l3.33,23.54c.48,3.06,1.54,3.47,3.59,3.22,1.52-.19,2.86-.8,2.42-3.95l-.57-4-2.55-18-.22-1.55a.81.81,0,0,1,.73-.89.84.84,0,0,1,1,.68l.25,1.76,2.5,17.66a2.39,2.39,0,0,0,2.81,1c2.84-.66,2.64-2.09,2.36-4.06l-1.9-13.39h0l-.17-1.17v-.1l.09.1.93,1.07,1.89,13.31c.29,2,.65,4.19-3,5a3.21,3.21,0,0,1-3.85-1.53l.05.37.52,3.66c.41,2.85-.47,4.51-3.15,4.84s-4-.56-4.54-3.89l-.37-2.59c0,.41,0,2.94-3.21,3.35-3.56.44-4.14-2-4.84-6.86l-.82-5.8a2.93,2.93,0,0,1-2.84,3.25,2.72,2.72,0,0,1-3.09-2.52l-1.81-12.76C174.22,275.39,173,267.05,180.19,262.81Zm12.05,43.87v-.05l-3-20.91m7.69-1,.24,1.66,2.53,17.88.05.37m-17.93-18,1.52,10.74"/><path class="cls-4" d="M186.5,266.27a.84.84,0,0,1,1,.67s.08.49.2,1.29l.4,2.91a4.59,4.59,0,0,0,2.21,3.54,6.59,6.59,0,0,0,.75.38v.87a12.74,12.74,0,0,0,4.05.69l.71.81a14.77,14.77,0,0,1-4.76-.65,8.53,8.53,0,0,1-1.68-.76,6.18,6.18,0,0,1-3-4.68c-.32-2.45-.58-4.15-.58-4.17A.8.8,0,0,1,186.5,266.27Zm-6.77-4.14,1.47-.86c2-1.22,4.82-2.88,8.07-4.65,3.72-2,9.32-2,13.63-.06,3.17,1.45,7.14,4.61,8.11,11.37l3.14,22.22-.73.17c-.52.12-5.13,1.16-7.5-.39l0,0,1.54,10.87c.28,1.92.68,4.82-3.64,5.82a4.69,4.69,0,0,1-2.89-.17l.26,1.79c.49,3.43-.82,5.36-3.89,5.74a7.82,7.82,0,0,1-1,.07c-2.5,0-3.84-1.33-4.38-4.29a4.92,4.92,0,0,1-2.69,1.09c-4.64.57-5.17-3.19-5.79-7.54l-.4-2.78a4.47,4.47,0,0,1-2.31.91,3.55,3.55,0,0,1-2.78-.79,3.91,3.91,0,0,1-1.26-2.41l-1.85-13a79.77,79.77,0,0,1-1.05-10.7C173.7,269.24,175,264.9,179.73,262.13Zm.69,37.71a2.09,2.09,0,0,0,2.1-2.36L181,286.74a.81.81,0,0,1,.74-.89.84.84,0,0,1,.95.69L185,303.08c.77,5.43,1.42,6.47,3.87,6.17s2.51-2.15,2.48-2.53l-3-20.9a.81.81,0,0,1,.74-.89.85.85,0,0,1,1,.69l3.33,23.54c.48,3.06,1.54,3.47,3.59,3.22,1.52-.19,2.86-.8,2.42-3.95l-.57-4-2.55-18-.22-1.55a.81.81,0,0,1,.73-.89.84.84,0,0,1,1,.68l.25,1.76,2.5,17.66a2.39,2.39,0,0,0,2.81,1c2.84-.66,2.64-2.09,2.36-4.06l-1.9-13.39h0l-.17-1.17v-.1l-.07-.45c-.06-.35-.08-.59-.09-.69l-1.22-8.57a30.78,30.78,0,0,1-6.48.82,14.77,14.77,0,0,1-4.76-.65,8.53,8.53,0,0,1-1.68-.76,6.18,6.18,0,0,1-3-4.68c-.32-2.45-.58-4.15-.58-4.17a.8.8,0,0,1,.71-.9.84.84,0,0,1,1,.67s.08.49.2,1.29l.4,2.91a4.59,4.59,0,0,0,2.21,3.54,6.59,6.59,0,0,0,.75.38,10.28,10.28,0,0,0,3.32.74,28,28,0,0,0,8.39-1l1-.27,1.58,11.11a6.35,6.35,0,0,0,.19.75,4.08,4.08,0,0,0,1.42,2.21c1.24.8,3.85.56,5.37.29l-2.95-20.79c-.86-6.05-4.37-8.86-7.16-10.14a14.27,14.27,0,0,0-12,0c-3.21,1.74-6,3.4-8,4.6l-1.47.88c-6.69,3.93-5.59,11.69-4.19,21.5l1.84,13a2.23,2.23,0,0,0,.73,1.44A1.69,1.69,0,0,0,180.42,299.84Zm6.08-33.57a.84.84,0,0,1,1,.67s.08.49.2,1.29l.4,2.91a4.59,4.59,0,0,0,2.21,3.54,6.59,6.59,0,0,0,.75.38v1.72a8.53,8.53,0,0,1-1.68-.76,6.18,6.18,0,0,1-3-4.68c-.32-2.45-.58-4.15-.58-4.17A.8.8,0,0,1,186.5,266.27Z"/><path class="cls-5" d="M176.45,285l1.84,13a2.23,2.23,0,0,0,.73,1.44,1.69,1.69,0,0,0,1.4.39,2.09,2.09,0,0,0,2.1-2.36L181,286.74a.81.81,0,0,1,.74-.89.84.84,0,0,1,.95.69L185,303.08c.77,5.43,1.42,6.47,3.87,6.17s2.51-2.15,2.48-2.53l-3-20.9a.81.81,0,0,1,.74-.89.85.85,0,0,1,1,.69l3.33,23.54c.48,3.06,1.54,3.47,3.59,3.22,1.52-.19,2.86-.8,2.42-3.95l-.57-4-2.55-18-.22-1.55a.81.81,0,0,1,.73-.89.84.84,0,0,1,1,.68l.25,1.76,2.5,17.66a2.39,2.39,0,0,0,2.81,1c2.84-.66,2.64-2.09,2.36-4.06l-1.9-13.39h0l-.17-1.17v-.1l-.07-.45c-.06-.35-.08-.59-.09-.69l-1.22-8.57a30.78,30.78,0,0,1-6.48.82,14.77,14.77,0,0,1-4.76-.65,8.53,8.53,0,0,1-1.68-.76,6.18,6.18,0,0,1-3-4.68c-.32-2.45-.58-4.15-.58-4.17a.8.8,0,0,1,.71-.9.84.84,0,0,1,1,.67s.08.49.2,1.29l.4,2.91a4.59,4.59,0,0,0,2.21,3.54,6.59,6.59,0,0,0,.75.38,10.28,10.28,0,0,0,3.32.74,28,28,0,0,0,8.39-1l1-.27,1.58,11.11a6.35,6.35,0,0,0,.19.75,4.08,4.08,0,0,0,1.42,2.21c1.24.8,3.85.56,5.37.29l-2.95-20.79c-.86-6.05-4.37-8.86-7.16-10.14a14.27,14.27,0,0,0-12,0c-3.21,1.74-6,3.4-8,4.6l-1.47.88C174,267.42,175.05,275.18,176.45,285Z"/><path class="cls-5" d="M107.11,278.17s-5.25,84.4-8.29,142.12h0a8.81,8.81,0,0,1-.52,17.61l-.42,0s0,22.91,0,22.91H22l.14-1.05,2.95-22.06a8.82,8.82,0,0,1,2.08-17.4h.24l15-112,5.47-40.9,3.22-24.17.11-.84h55.91Z"/><path class="cls-4" d="M74.08,454.57a5.8,5.8,0,1,1-5.8-5.8A5.81,5.81,0,0,1,74.08,454.57Z"/><path class="cls-4" d="M62.48,454.57a5.8,5.8,0,1,1-5.79-5.8A5.8,5.8,0,0,1,62.48,454.57Z"/><path class="cls-4" d="M50.88,454.57a5.8,5.8,0,1,1-5.8-5.8A5.8,5.8,0,0,1,50.88,454.57Z"/><path class="cls-4" d="M39.35,455.68a4.7,4.7,0,1,1-4.69-4.7A4.69,4.69,0,0,1,39.35,455.68Z"/><path class="cls-4" d="M91.61,350.17a8.81,8.81,0,1,1-8.81-8.8A8.8,8.8,0,0,1,91.61,350.17Z"/><path class="cls-4" d="M91.61,451.57a8.81,8.81,0,1,1-8.81-8.81A8.8,8.8,0,0,1,91.61,451.57Z"/><path class="cls-5" d="M106.92,278.17s5.25,84.4,8.29,142.12h0a8.81,8.81,0,0,0,.52,17.61l.42,0,0,22.91H192l-.14-1.05-2.95-22.06a8.82,8.82,0,0,0-2.08-17.4h-.24l-15-112-5.46-40.9-3.23-24.17-.1-.84H106.92Z"/><path class="cls-4" d="M140,454.57a5.8,5.8,0,1,0,5.8-5.8A5.8,5.8,0,0,0,140,454.57Z"/><path class="cls-4" d="M151.54,454.57a5.8,5.8,0,1,0,5.8-5.8A5.81,5.81,0,0,0,151.54,454.57Z"/><path class="cls-4" d="M163.15,454.57a5.8,5.8,0,1,0,5.79-5.8A5.8,5.8,0,0,0,163.15,454.57Z"/><path class="cls-4" d="M174.68,455.68a4.69,4.69,0,1,0,4.69-4.7A4.69,4.69,0,0,0,174.68,455.68Z"/><path class="cls-4" d="M122.42,350.17a8.81,8.81,0,1,0,8.81-8.8A8.8,8.8,0,0,0,122.42,350.17Z"/><path class="cls-4" d="M122.42,451.57a8.81,8.81,0,1,0,8.81-8.81A8.8,8.8,0,0,0,122.42,451.57Z"/><polygon class="cls-6" points="107.11 0 28.25 136.6 185.98 136.6 107.11 0"/><path class="cls-7" d="M104.86,77.65s-7.31,9.62-16.32,9.62-16.33-9.62-16.33-9.62S79.52,68,88.54,68,104.86,77.65,104.86,77.65Z"/><path class="cls-7" d="M142.07,77.65s-7.31,9.62-16.33,9.62-16.32-9.62-16.32-9.62S116.72,68,125.74,68,142.07,77.65,142.07,77.65Z"/><path class="cls-5" d="M123.4,111.64s-7.31,9.62-16.33,9.62-16.32-9.62-16.32-9.62,7.31-6.73,16.32-6.73S123.4,111.64,123.4,111.64Z"/><path class="cls-8" d="M105.29,74.17A56.83,56.83,0,0,1,99.4,98.52h15.4a56.83,56.83,0,0,1-5.89-24.35Z"/><path class="cls-4" d="M122.8,112.57H91.36a.93.93,0,1,1,0-1.86H122.8a.93.93,0,0,1,0,1.86Z"/><path class="cls-9" d="M130.33,63.69a.85.85,0,0,1-.51-.15,6.86,6.86,0,0,0-8.15,0,.93.93,0,0,1-1.29-.27.92.92,0,0,1,.27-1.28,8.63,8.63,0,0,1,10.19,0,.91.91,0,0,1,.26,1.28A.89.89,0,0,1,130.33,63.69Z"/><path class="cls-9" d="M94.41,63.69a1,1,0,0,1-.46-.12,9,9,0,0,0-9.58,0,.92.92,0,0,1-1.26-.34A.93.93,0,0,1,83.45,62a10.83,10.83,0,0,1,11.42,0,.92.92,0,0,1-.46,1.73Z"/><circle class="cls-10" cx="70.95" cy="98.52" r="5.73"/><circle class="cls-10" cx="142.91" cy="98.52" r="5.73"/><polygon class="cls-10" points="107.11 0 34.08 132.72 109.42 136.09 28.25 136.6 107.11 0"/><polygon class="cls-4" points="78.41 242.41 55.99 248.02 27.21 420.28 51.2 242.41 78.41 242.41"/><path class="cls-4" d="M107.12,267,107,279.66l8.2,140.63-3-152.68,23.62-25.2S107.12,260.71,107.12,267Z"/><path class="cls-1" d="M107.12,267c8.23-14.63,33.31-22.34,60.23-53.54,15.88-18.39,14.92-36.94,14.92-36.94,0-20.29-13.69-37.11-31.61-40.21,0,0-11.95,0-11.94,0-17.91,3.09-31.6,19.91-31.6,40.21,0-20.3-13.69-37.12-31.62-40.21h-12C45.62,139.48,32,156.29,32,176.56c0,0-.95,18.55,14.92,36.94C73.8,244.7,98.87,252.41,107.12,267Z"/><path class="cls-2" d="M152.22,183.41a3.1,3.1,0,1,0,3.09-3.09A3.09,3.09,0,0,0,152.22,183.41Z"/><path class="cls-2" d="M104.21,242A3.09,3.09,0,1,0,107.3,239,3.09,3.09,0,0,0,104.21,242Z"/><path class="cls-2" d="M55.42,183.41a3.1,3.1,0,1,0,3.1-3.1A3.1,3.1,0,0,0,55.42,183.41Z"/><path class="cls-11" d="M129.82,198.67c1.57-2.57,6.33-3.92,11.44-9.38a9.56,9.56,0,0,0,2.83-6.48,7.14,7.14,0,0,0-14.27,0,7.14,7.14,0,0,0-14.27,0,9.54,9.54,0,0,0,2.84,6.48C123.5,194.75,128.26,196.1,129.82,198.67Z"/><polygon class="cls-8" points="107.11 0 185.98 136.6 109.42 136.09 181.36 133.84 107.11 0"/><polygon class="cls-12" points="162.93 243.25 186.82 420.28 158.41 248.66 135.82 242.41 162.83 242.41 162.93 243.25"/><polygon class="cls-12" points="107.12 267.04 97.81 350.17 98.82 420.29 107.12 267.04"/><path class="cls-10" d="M55.39,89.6l-.71,1.23a11.11,11.11,0,0,1,3.69-20.58,11.1,11.1,0,0,0-3,19.35Z"/><path class="cls-6" d="M65.8,71.57l-10.41,18a11.1,11.1,0,0,1,3-19.35A11,11,0,0,1,65.8,71.57Z"/><path class="cls-8" d="M159.56,90.83l-.46-.78a11.11,11.11,0,0,0-5.93-19.93,11.12,11.12,0,0,1,6.39,20.71Z"/><path class="cls-6" d="M159.1,90.05,148.44,71.57a11.08,11.08,0,0,1,4.73-1.45,11.11,11.11,0,0,1,5.93,19.93Z"/><path class="cls-13" d="M72.21,77.66s6.38-9.9,16.81-9.9,15.84,9.9,15.84,9.9-6-7.83-16-7.83S72.21,77.66,72.21,77.66Z"/><path class="cls-13" d="M109.42,77.66s6.38-9.9,16.81-9.9,15.84,9.9,15.84,9.9-6-7.83-16-7.83S109.42,77.66,109.42,77.66Z"/><path class="cls-9" d="M95.63,74.66a6.47,6.47,0,1,1-6.47-6.47A6.47,6.47,0,0,1,95.63,74.66Z"/><path class="cls-7" d="M93.91,71.3a2.38,2.38,0,1,1-2.37-2.37A2.38,2.38,0,0,1,93.91,71.3Z"/><path class="cls-9" d="M132.21,74.7a6.47,6.47,0,1,1-6.47-6.46A6.47,6.47,0,0,1,132.21,74.7Z"/><path class="cls-7" d="M130.49,71.3a2.38,2.38,0,1,1-2.37-2.37A2.38,2.38,0,0,1,130.49,71.3Z"/></g></g></svg>