<?xml version="1.0" encoding="utf-8"?>
<!-- Generator: Adobe Illustrator 23.0.2, SVG Export Plug-In . SVG Version: 6.00 Build 0)  -->
<svg version="1.1" id="Calque_1" xmlns="http://www.w3.org/2000/svg" xmlns:xlink="http://www.w3.org/1999/xlink" x="0px" y="0px"
	 viewBox="0 0 36.4 31.3" style="enable-background:new 0 0 36.4 31.3;" xml:space="preserve">
<style type="text/css">
	.st0{fill:#FFFFFF;}
	.st1{fill:#E42528;}
	.st2{fill:#FECA14;}
	.st3{fill:#125BA3;}
</style>
<g>
	<g id="Calque_1-2">
		<polygon class="st0" points="0,30.7 35.8,30.7 17.8,0 		"/>
		<polygon class="st1" points="21.2,20.4 23,29.3 12.8,29.3 14.6,20.4 		"/>
		<path class="st2" d="M17.9,19.5c0.6-0.9,2.3-1.4,4.1-3.3c0.6-0.6,1-1.4,1-2.3c0-1.4-1.1-2.5-2.5-2.5c-1.4,0-2.5,1.1-2.5,2.5
			c0-1.4-1.1-2.5-2.5-2.5s-2.5,1.1-2.5,2.5c0,0.9,0.4,1.7,1,2.3C15.6,18.1,17.3,18.5,17.9,19.5"/>
		<polygon class="st3" points="17.9,1.4 23,10.2 12.8,10.2 		"/>
	</g>
</g>
</svg>
