<svg xmlns="http://www.w3.org/2000/svg" xmlns:xlink="http://www.w3.org/1999/xlink" viewBox="0 0 55.23 32.01"><defs><style>.cls-1{isolation:isolate;}.cls-2{fill:url(#linear-gradient);}.cls-3{fill:#eb5a37;}.cls-4{fill:#e42313;}.cls-5{fill:#bd1823;}.cls-6{fill:#9d9d9c;}.cls-7{fill:#dadada;}.cls-8{fill:#ededed;}.cls-12,.cls-13,.cls-22,.cls-9{mix-blend-mode:multiply;}.cls-9{opacity:0.2;}.cls-10{fill:#331d74;}.cls-11{fill:#fff;}.cls-13{fill:#d2f3f7;}.cls-14{fill:#f19001;}.cls-15{fill:#ffd300;}.cls-16{fill:#96b2b2;}.cls-17{fill:#c8eded;}.cls-18{fill:#14537a;}.cls-19{fill:#1c5e96;}.cls-20{fill:#37a6de;}.cls-21{fill:#0070ba;}.cls-22{opacity:0.4;}.cls-23{fill:#3e1e7d;}</style><linearGradient id="linear-gradient" x1="-468.81" y1="-1319.56" x2="-485.77" y2="-1311.66" gradientTransform="translate(-144.78 1398.03) rotate(26.29)" gradientUnits="userSpaceOnUse"><stop offset="0" stop-color="#271a6b"/><stop offset="0.21" stop-color="#2e1b71"/><stop offset="0.53" stop-color="#431e81"/><stop offset="0.91" stop-color="#64249b"/><stop offset="1" stop-color="#6d25a2"/></linearGradient></defs><g class="cls-1"><g id="Calque_2" data-name="Calque 2"><g id="Calque_1-2" data-name="Calque 1"><path class="cls-2" d="M20.39,6.14S13.45,3,13.16,2.91A43.26,43.26,0,0,0,0,6.77l11.52,4.66Z"/><path class="cls-3" d="M20.39,6.14l-.86.51c-1.58-.73-6.49-3-6.74-3A43.19,43.19,0,0,0,.66,7L0,6.77A43.26,43.26,0,0,1,13.16,2.91C13.45,3,20.39,6.14,20.39,6.14Z"/><path class="cls-4" d="M19.53,6.65l-8,4.78L.66,7A43.19,43.19,0,0,1,12.79,3.64C13,3.67,18,5.92,19.53,6.65Z"/><path class="cls-5" d="M21.66,26.55a5.61,5.61,0,0,1-.32.53A43.62,43.62,0,0,1,8.55,32l6.31-10.7.68-.08L9.83,30.91A46.76,46.76,0,0,0,21.66,26.55Z"/><path class="cls-4" d="M25.12,20.11s-2.54,4.82-3.46,6.44A46.76,46.76,0,0,1,9.83,30.91l5.71-9.68Z"/><path class="cls-6" d="M47.9,10.36c-4.06,3.34-9.2,6.75-13.85,8.32C27.08,21,17.48,21.84,13.12,22l-.6-1.77c3.55,0,14.4-.71,22.08-3.31,4.31-1.46,9-4.49,12.94-7.58Z"/><path class="cls-7" d="M47.54,9.31c-3.9,3.09-8.63,6.12-12.94,7.58-7.68,2.6-18.53,3.31-22.08,3.31L9.73,12l.43-.3,2.35,6.93a81.37,81.37,0,0,0,12.37-.94l.23,0a60.66,60.66,0,0,0,10.28-2.32A44.56,44.56,0,0,0,47.27,8.52Z"/><path class="cls-8" d="M47.27,8.52a44.76,44.76,0,0,1-11.89,6.77,62.24,62.24,0,0,1-10.27,2.32l-.23,0a87.16,87.16,0,0,1-12.88,1L9.73,12h0c3.73-2.64,11.91-7.83,18.62-10.1C33,.27,39.15-.15,44.4,0Z"/><path class="cls-4" d="M8.81,13.33c-.59.43-1,.76-1.25,1L10,21.44c.31,0,.85,0,1.58,0Z"/><g class="cls-9"><path class="cls-10" d="M10.57,9.53,5.15,7.4a0,0,0,0,0,0,0l-1.93.65.17.07,1.78-.6,5.24,2.06-1.85.63.17.07,1.88-.63a.07.07,0,0,0,0-.06A.05.05,0,0,0,10.57,9.53Z"/><path class="cls-10" d="M16.21,6.4l2.73-.93-.17-.07-2.57.87L10.3,3.35l-.2,0L11.23,4A62.74,62.74,0,0,0,.93,7.14l.17.07A61.65,61.65,0,0,1,11.41,4l4.76,2.35Z"/></g><g class="cls-9"><path class="cls-10" d="M24.45,21.38l-2.82.95,0,0-2.35,4.76a61.89,61.89,0,0,1-10,3.72l-.1.16a62.49,62.49,0,0,0,10-3.7l-.64,1.3.18-.09,3-6.07,2.68-.9Z"/><path class="cls-10" d="M10.48,28.74l-.1.16,1.82-.61,0,0,3-5s0-.05,0-.07a.07.07,0,0,0-.07,0l-1.76.6-.1.16,1.74-.59-2.91,4.83Z"/></g><path class="cls-11" d="M44.4,0c-5.25-.19-11.4.23-16,1.81C21.64,4.12,13.46,9.31,9.73,12h0l.3.89h0C12.19,11.45,22.28,5,27.64,3.22a42.27,42.27,0,0,1,9.42-2.13L36.77.23h.13l.29.86C38.41,1,39.66.89,41,.87h.48L41.17,0h.13l.29.85,1.61,0h0c.48,0,1,0,1.47,0ZM37.33.59a.12.12,0,0,1-.15-.08.12.12,0,0,1,.07-.15.13.13,0,0,1,.16.08A.12.12,0,0,1,37.33.59Zm.11.33a.12.12,0,1,1-.07-.23.12.12,0,0,1,.15.08A.12.12,0,0,1,37.44.92ZM41.77.39a.11.11,0,0,1-.15-.07.12.12,0,0,1,.07-.16.12.12,0,0,1,.15.08A.12.12,0,0,1,41.77.39Zm.11.33a.12.12,0,0,1-.15-.07A.13.13,0,0,1,41.8.49.12.12,0,0,1,42,.57.12.12,0,0,1,41.88.72Z"/><g class="cls-12"><path class="cls-13" d="M37.33.59a.12.12,0,0,1-.15-.08.12.12,0,0,1,.07-.15.13.13,0,0,1,.16.08A.12.12,0,0,1,37.33.59Z"/><path class="cls-13" d="M45.38,1.1a42.76,42.76,0,0,0-17.7,2.24,36.81,36.81,0,0,0-4.23,1.83h0C21,6.41,18.24,8,15.88,9.36h0c-3.44,2.05-6.11,3.79-6.17,3.83a.06.06,0,0,1-.06,0l0,0a.05.05,0,0,1,0-.08l.4-.26h0C12.19,11.45,22.28,5,27.64,3.22a42.27,42.27,0,0,1,9.42-2.13L36.77.23h.13l.29.86C38.41,1,39.66.89,41,.87h.48L41.17,0h.13l.29.85h0c.53,0,1.06,0,1.61,0h0c.48,0,1,0,1.47,0l.69,0a.07.07,0,0,1,0,.13Z"/><path class="cls-13" d="M42.35,6.3a.12.12,0,0,0-.08.15.12.12,0,0,0,.15.08.13.13,0,0,0,.08-.16A.12.12,0,0,0,42.35,6.3Z"/><path class="cls-13" d="M40.14,7.05a.12.12,0,0,0-.08.15.11.11,0,0,0,.15.07.12.12,0,1,0-.07-.22Z"/><circle class="cls-13" cx="40.91" cy="6.91" r="0.12"/><path class="cls-13" d="M41.61,6.55a.12.12,0,0,0-.08.15.14.14,0,0,0,.16.08.13.13,0,0,0,.07-.16A.12.12,0,0,0,41.61,6.55Z"/><circle class="cls-13" cx="43.12" cy="6.16" r="0.12"/><path class="cls-13" d="M43.9,6A.13.13,0,0,0,44,5.87a.12.12,0,0,0-.15-.07.11.11,0,0,0-.07.15A.12.12,0,0,0,43.9,6Z"/><path class="cls-13" d="M39.4,7.3a.12.12,0,0,0-.08.15.11.11,0,0,0,.15.07.12.12,0,0,0,.08-.15A.12.12,0,0,0,39.4,7.3Z"/><circle class="cls-13" cx="44.6" cy="5.66" r="0.12"/><path class="cls-13" d="M37.44.92a.12.12,0,1,1-.07-.23.12.12,0,0,1,.15.08A.12.12,0,0,1,37.44.92Z"/><path class="cls-13" d="M41.77.39a.11.11,0,0,1-.15-.07.12.12,0,0,1,.07-.16.12.12,0,0,1,.15.08A.12.12,0,0,1,41.77.39Z"/><path class="cls-13" d="M41.88.72a.12.12,0,0,1-.15-.07A.13.13,0,0,1,41.8.49.12.12,0,0,1,42,.57.12.12,0,0,1,41.88.72Z"/><path class="cls-13" d="M41.27,13.67l0,0a0,0,0,0,0-.05,0l-6.34,2.14,0,0a0,0,0,0,0,0,0l.76,2.26.11-.05L35,15.87l6.22-2.1.4,1.18.11-.07Z"/><path class="cls-13" d="M37.19,8.05a.12.12,0,0,0-.08.15.12.12,0,0,0,.15.07.12.12,0,0,0,.08-.15A.11.11,0,0,0,37.19,8.05Z"/><path class="cls-13" d="M36.45,8.3a.12.12,0,0,0-.08.15.13.13,0,0,0,.16.07.12.12,0,0,0,.07-.15A.11.11,0,0,0,36.45,8.3Z"/><path class="cls-13" d="M21,16.78a.12.12,0,0,0-.07.15.12.12,0,0,0,.15.08.12.12,0,0,0,.08-.15A.14.14,0,0,0,21,16.78Z"/><circle class="cls-13" cx="38.7" cy="7.66" r="0.12" transform="translate(14.69 38.96) rotate(-63.71)"/><path class="cls-13" d="M37.92,7.8A.12.12,0,0,0,38,8a.12.12,0,0,0,.08-.15A.13.13,0,0,0,37.92,7.8Z"/><path class="cls-13" d="M21.75,16.53a.12.12,0,0,0-.07.16.11.11,0,0,0,.15.07.12.12,0,0,0,.07-.15A.12.12,0,0,0,21.75,16.53Z"/><path class="cls-13" d="M24.62,12.3a.12.12,0,0,0-.07.15.12.12,0,0,0,.15.08.12.12,0,0,0,.07-.15A.12.12,0,0,0,24.62,12.3Z"/><path class="cls-13" d="M23.88,12.55a.12.12,0,0,0-.07.15.12.12,0,0,0,.15.08.12.12,0,0,0,.08-.15A.12.12,0,0,0,23.88,12.55Z"/><path class="cls-13" d="M25.36,12.05a.12.12,0,0,0-.08.15.13.13,0,0,0,.16.08.12.12,0,0,0,.07-.15A.12.12,0,0,0,25.36,12.05Z"/><path class="cls-13" d="M23.15,12.8a.12.12,0,0,0-.08.15.12.12,0,0,0,.15.08.12.12,0,0,0-.07-.23Z"/><path class="cls-13" d="M23.22,16a.13.13,0,0,0-.07.16.12.12,0,0,0,.15.07.12.12,0,0,0,.08-.15A.13.13,0,0,0,23.22,16Z"/><path class="cls-13" d="M27,13,11.19,18.34a.06.06,0,0,0,0,.08s0,0,0,0h0l8.7-3,.37,1.09,1.58,4.66.13,0-1.57-4.62,3.44-1.17a0,0,0,0,0,0,0l.34-.67s0,0,0-.05l-.2-.59,3-1a.06.06,0,0,0,0-.08A.07.07,0,0,0,27,13Zm-2.91,1.75-.31.62L20.4,16.5l-.35-1,3.88-1.32Z"/><path class="cls-13" d="M22.49,16.28a.12.12,0,0,0-.08.16.12.12,0,0,0,.15.07.12.12,0,0,0,.08-.15A.12.12,0,0,0,22.49,16.28Z"/></g><path class="cls-14" d="M32.45,15.19A5.06,5.06,0,0,1,26.4,8a5.06,5.06,0,0,0,9.06,4.48A5.05,5.05,0,0,1,32.45,15.19Z"/><path class="cls-15" d="M35.46,12.43A5.06,5.06,0,0,1,26.4,8,5,5,0,0,1,29.21,5.6a5.06,5.06,0,0,1,6.25,6.83Z"/><path class="cls-16" d="M32.13,14.22a4,4,0,0,1-4.76-5.91,4,4,0,0,0-.07,2.77,4,4,0,0,0,7.29.79A4,4,0,0,1,32.13,14.22Z"/><path class="cls-17" d="M34.59,11.87a4,4,0,0,1-7.29-.79,4,4,0,0,1,.07-2.77,4,4,0,0,1,2.16-1.74A4,4,0,0,1,34.66,9.1,4,4,0,0,1,34.59,11.87Z"/><path class="cls-5" d="M13.14,22c-.9,0-1.59,0-2,0l-3-8.93c.3-.26.84-.67,1.57-1.2l0,0h0l-.64.49-.86.66,3.49,7.09h.8l.6,1.77Z"/><path class="cls-4" d="M12.52,20.2h-.8L8.23,13.1l.86-.66L9.73,12h0Z"/><path class="cls-3" d="M22.76,13.26c-.31-.23-1.62,0-7.2,1.85s-10.14,3.69-11,4.33c-.15,0-.23,0-.25-.05C4.15,19,9.17,17,15.48,14.87s7.15-2.1,7.27-1.74A.19.19,0,0,1,22.76,13.26Z"/><path class="cls-4" d="M15.92,16.16c-5.58,1.89-10.3,3.24-11.4,3.28.9-.64,5.46-2.44,11-4.33s6.89-2.08,7.2-1.85C22.65,13.63,21.49,14.28,15.92,16.16Z"/><path class="cls-18" d="M47.9,10.36l-.36-1A42.58,42.58,0,0,0,55.08,2a.5.5,0,0,1,.12.19C55.52,3.08,52.37,6.68,47.9,10.36Z"/><path class="cls-19" d="M55.08,2a42.58,42.58,0,0,1-7.54,7.36l-.27-.79a53.76,53.76,0,0,0,7.51-6.8A1.3,1.3,0,0,1,55.08,2Z"/><path class="cls-20" d="M44.88.86l.66,2.54L44.4,0c4.91.18,9,.89,10.37,1.67C52.86,1,49.36,1,44.88.86Z"/><path class="cls-21" d="M54.78,1.72a53.76,53.76,0,0,1-7.51,6.8L45.54,3.4,44.68.86a23.5,23.5,0,0,1,10.09.85Z"/><g class="cls-22"><path class="cls-23" d="M45.3,1.22h0A.14.14,0,0,1,45.39,1L45.78.9A.15.15,0,0,1,46,1h0a.16.16,0,0,1-.09.19l-.4.13A.13.13,0,0,1,45.3,1.22Z"/><path class="cls-23" d="M45.62,2.18h0A.14.14,0,0,1,45.71,2l.4-.13a.13.13,0,0,1,.18.09h0a.14.14,0,0,1-.09.19l-.39.13A.16.16,0,0,1,45.62,2.18Z"/><path class="cls-23" d="M45.94,3.13h0A.15.15,0,0,1,46,3l.39-.14a.16.16,0,0,1,.19.1h0a.15.15,0,0,1-.1.18l-.39.14A.16.16,0,0,1,45.94,3.13Z"/><path class="cls-23" d="M46.27,4.09h0a.14.14,0,0,1,.09-.19l.39-.13a.16.16,0,0,1,.19.09h0a.15.15,0,0,1-.09.19l-.4.13A.13.13,0,0,1,46.27,4.09Z"/><path class="cls-23" d="M46.59,5.05h0a.16.16,0,0,1,.09-.19l.4-.13a.13.13,0,0,1,.18.09h0a.14.14,0,0,1-.09.19l-.39.13A.15.15,0,0,1,46.59,5.05Z"/><path class="cls-23" d="M46.92,6h0A.13.13,0,0,1,47,5.82l.39-.14a.16.16,0,0,1,.19.1h0A.15.15,0,0,1,47.5,6l-.4.14A.15.15,0,0,1,46.92,6Z"/><path class="cls-23" d="M47.24,7h0a.14.14,0,0,1,.09-.18l.4-.14a.15.15,0,0,1,.18.09h0a.14.14,0,0,1-.09.19l-.39.13A.14.14,0,0,1,47.24,7Z"/><path class="cls-23" d="M47.56,7.92h0a.16.16,0,0,1,.1-.19l.39-.13a.14.14,0,0,1,.19.09h0a.16.16,0,0,1-.1.19L47.75,8A.15.15,0,0,1,47.56,7.92Z"/><path class="cls-23" d="M47.89,8.87h0A.13.13,0,0,1,48,8.69l.39-.13a.14.14,0,0,1,.19.09h0a.14.14,0,0,1-.09.18l-.4.14A.15.15,0,0,1,47.89,8.87Z"/></g></g></g></g></svg>