<svg xmlns="http://www.w3.org/2000/svg" viewBox="0 0 55.1 55.1"><defs><style>.cls-1{fill:#002e52;stroke:#f9b233;stroke-miterlimit:10;stroke-width:4px;}.cls-2{fill:#fff;}</style></defs><g id="Calque_2" data-name="Calque 2"><g id="Calque_1-2" data-name="Calque 1"><circle class="cls-1" cx="27.55" cy="27.55" r="25.55"/><path class="cls-2" d="M27.93,12l2.4,7.42a.4.4,0,0,0,.6.22l6.6-4.15a.41.41,0,0,1,.59.5l-2.94,7.22a.4.4,0,0,0,.32.55l7.72,1.07a.41.41,0,0,1,.14.76l-6.89,3.64a.4.4,0,0,0-.11.63l5.22,5.78a.4.4,0,0,1-.38.67l-7.62-1.64a.41.41,0,0,0-.49.42l.29,7.78a.41.41,0,0,1-.73.27L27.87,37a.4.4,0,0,0-.64,0l-4.79,6.15a.4.4,0,0,1-.72-.27L22,35.13a.41.41,0,0,0-.49-.42L13.9,36.35a.41.41,0,0,1-.39-.67l5.23-5.78a.41.41,0,0,0-.11-.63l-6.89-3.64a.41.41,0,0,1,.13-.76l7.72-1.07a.4.4,0,0,0,.32-.55L17,16a.41.41,0,0,1,.59-.5l6.6,4.15a.41.41,0,0,0,.6-.22L27.16,12A.41.41,0,0,1,27.93,12Z"/></g></g></svg>