<?xml version="1.0" encoding="utf-8"?>
<!-- Generator: Adobe Illustrator 23.0.2, SVG Export Plug-In . SVG Version: 6.00 Build 0)  -->
<svg version="1.1" id="Calque_1" xmlns="http://www.w3.org/2000/svg" xmlns:xlink="http://www.w3.org/1999/xlink" x="0px" y="0px"
	 viewBox="0 0 28.2 31.5" style="enable-background:new 0 0 28.2 31.5;" xml:space="preserve">
<style type="text/css">
	.st0{fill:#FFFFFF;}
	.st1{fill:#E42528;}
	.st2{fill:#FECA14;}
	.st3{fill:#125BA3;}
</style>
<g>
	<g id="Calque_1-2">
		<path class="st0" d="M20.5,15.4L20.5,15.4L20.5,15.4L20.5,15.4c4.2,0,7.7-3.4,7.7-7.7S24.7,0,20.5,0H0v30.7h20.5
			c4.2-0.2,7.6-3.7,7.4-8C27.7,18.8,24.5,15.5,20.5,15.4"/>
		<polygon class="st1" points="17.4,20.5 19.1,29.3 9,29.3 10.8,20.5 		"/>
		<path class="st2" d="M14.1,19.5c0.6-0.9,2.3-1.4,4.1-3.3c0.6-0.6,1-1.4,1-2.3c0-1.4-1.1-2.5-2.5-2.5s-2.5,1.1-2.5,2.5
			c0-1.4-1.1-2.5-2.5-2.5S9,12.4,9,13.8c0,0.9,0.4,1.7,1,2.3C11.8,18.1,13.5,18.5,14.1,19.5"/>
		<polygon class="st3" points="14.1,1.4 19.1,10.2 9,10.2 		"/>
	</g>
</g>
</svg>
