<svg xmlns="http://www.w3.org/2000/svg" xmlns:xlink="http://www.w3.org/1999/xlink" viewBox="0 0 288.86 288.85"><defs><style>.cls-1{fill:#196ea5;}.cls-2{fill:#009fe3;}.cls-3{fill:#27aae1;}.cls-4{fill:#5fb2e0;}.cls-5{fill:#a4dbf4;}.cls-6{fill:#0e577f;}.cls-7{fill:#212a3c;opacity:0.2;}.cls-8,.cls-9{opacity:0.3;}.cls-8{fill:url(#linear-gradient);}.cls-9{fill:#fff;}</style><linearGradient id="linear-gradient" x1="-10128.66" y1="-1160.29" x2="-10065.04" y2="-1043.21" gradientTransform="matrix(-0.82, -0.13, -0.15, 0.84, -8272.72, -307.93)" gradientUnits="userSpaceOnUse"><stop offset="0" stop-color="#fff"/><stop offset="1" stop-color="#fff" stop-opacity="0"/></linearGradient></defs><g id="Calque_2" data-name="Calque 2"><g id="Calque_1-2" data-name="Calque 1"><path class="cls-1" d="M0,146.52A144.43,144.43,0,1,0,142.35,0,144.43,144.43,0,0,0,0,146.52Z"/><path class="cls-2" d="M.4,134.05c10.92.3,21.79.2,32.49-2.57,18.12-4.7,34.41-14.7,52.68-19,24.72-5.8,51.06-6.64,76.26-4.2,24.92,2.42,48.13,13.14,73,15.88,17.4,1.92,35.05,1,52.62.17a148,148,0,0,1,1.42,18c0,3.1-.05,6.17-.2,9.22l-22.86.34c-38,.54-74.78,13.81-112.46,17.93-25.85,2.83-52,.89-77.78-1.42-11.11-1-20.49-7.81-31.51-8.86-9.39-.89-18.84-1-28.27-1.24-1.11,0-7.49,0-15.06,0-.37-3.89-.64-7.83-.69-11.8C0,142.31.11,138.17.4,134.05Z"/><path class="cls-3" d="M10.8,199.22c6.4,1.18,15.44,3,19.25,4.72,6.18,2.72,27,5.94,33.15,8s15.37.48,15.37.48l46.86-.67c2.3,0,27.59-4.63,33.68-8.23S180.56,199,180.56,199l49.83-7.75,48.85,5.05A144.27,144.27,0,0,1,258.47,233c-14.78.36-29.29,2.52-37.43,2.63-8.44.13-26.85,2.5-36,4.74s-16.88.95-20.73,1-38.42-.86-69.94-1.81-18.44.27-24.6-1-16.13.24-23.81.35a96,96,0,0,1-10.86-.15A144.42,144.42,0,0,1,10.8,199.22Z"/><path class="cls-2" d="M269,71.31c-22.65-6.11-59.49-12.51-94.91-3.08C117.42,83.3,101.24,79.78,81.2,75.57s-32.34-4.79-36.95-4.72l-24.33.35A144.94,144.94,0,0,1,44.05,40.64c3.06-.36,6-.64,8.21-.67,6.92-.1,19.19-1,30.71-1.94s34.51-4.25,38.35-4.31,3.83-.81,19.18-1.78,40.64-5.84,51.38-6.74c10.39-.88,17.92-3.1,28.82-3.39A145.16,145.16,0,0,1,269,71.31Z"/><path class="cls-4" d="M70.23,140.51c.17,11.45,25.23,20.38,56,19.93s55.56-10.09,55.4-21.54-25.24-20.38-56-19.94S70.06,129.05,70.23,140.51Z"/><path class="cls-5" d="M94.81,140.15c.09,6.4,14.1,11.38,31.28,11.14s31-5.64,30.94-12-14.09-11.38-31.28-11.13S94.72,133.75,94.81,140.15Z"/><path class="cls-4" d="M82.87,57.7c.26,7,15.58,12,34.24,11.35s33.58-6.86,33.32-13.81-15.58-12-34.24-11.35S82.62,50.75,82.87,57.7Z"/><path class="cls-5" d="M97.78,57.16c.14,3.88,8.7,6.72,19.13,6.34s18.75-3.83,18.61-7.71-8.7-6.72-19.12-6.35S97.64,53.27,97.78,57.16Z"/><path class="cls-5" d="M198.64,45.62c.1,3,6.76,5.22,14.86,4.93s14.56-3,14.45-6-6.76-5.23-14.86-4.93S198.53,42.61,198.64,45.62Z"/><path class="cls-4" d="M217.37,141.26c.06,3.5,12.65,6.15,28.13,5.93s28-3.24,27.95-6.74-12.65-6.16-28.13-5.93S217.32,137.76,217.37,141.26Z"/><path class="cls-4" d="M43.51,225.21c0,3.11,11.21,5.46,24.95,5.26s24.83-2.87,24.79-6S82,219,68.3,219.23,43.46,222.11,43.51,225.21Z"/><path class="cls-5" d="M164.42,218.16c.12,4.33,15.73,7.41,34.87,6.88s34.56-4.47,34.44-8.8-15.74-7.4-34.88-6.87S164.3,213.84,164.42,218.16Z"/><path class="cls-6" d="M4.25,179.16c.77,3.09,1.61,6.14,2.56,9.14,4-.09,8-.09,12,.11,9,.48,17.45,3.26,26.34,4.54,12.27,1.79,25.94,3.46,38.34,3.46,8.54,0,17-1.14,25.52-1.92,7.17-.66,14.92.2,21.94-1.46a413.8,413.8,0,0,1,42.39-7.71c17.36-2.2,35.05-5.81,52.46-7.1,11.89-.88,24.43-1.7,36.33-1.73,7.1,0,14.13.12,21.21.25l1.88,0c.38-1.67.77-3.35,1.09-5-12.16,0-24.71,1.49-36.49,2.26-23.93,1.55-47.82,3.73-71.8,4.39-12.48.34-24.18,3.68-36.47,5.43-8.64,1.22-16.58,2.45-25.27,2-13.64-.66-27.29.13-40.94.47-12.54.31-24.86-1-37.36-1.18C26.55,185,15.33,182,4.25,179.16Zm236.87-83c-9.89-1.37-18.57-2.89-28.68-2.7q-27.6.52-55.17,1.24c-28.53.74-57.07-2.2-85.4,2.53-9.75,1.62-19.12,5.17-29.05,5.94-11.45.9-24.58-2.06-35.73.58a11.59,11.59,0,0,1-1.34.21c1.09-3.74,2.36-7.4,3.73-11C41,93.41,72.79,91.4,104,88.13,120.55,86.39,137.2,84,153.82,83c33.7-2,67.45-.94,101.18-1.34q9.67-.11,19.34-.4A142.73,142.73,0,0,1,282.79,103C268.89,101.29,254.94,98.09,241.12,96.18ZM188.22,6.8,165.57,12s-15.75.61-17.28.64-24.94,2.66-27.23,3.08S98.85,21,97.32,21s-13.81,1.35-16.5,1.39c-2.25,0-11.71.7-15.43,1.16A144.36,144.36,0,0,1,188.22,6.8ZM111.82,254c1.15,0,12.69,1,14.24,1.33s18.49,3.57,18.49,3.57,17.65-1,18.81-1,16.9-.24,21.5-.69,33.37-3.56,33.37-3.56l21-.3a144.34,144.34,0,0,1-185.42,3.6,1.26,1.26,0,0,1,0-.16s19.94-1.82,21.1-1.83l17.66-.26C94.54,254.63,110.67,254,111.82,254Z"/><path class="cls-7" d="M26.83,60.61c42.18,61.7,135,179.23,228.31,176.5A144.4,144.4,0,0,1,26.83,60.61Z"/><path class="cls-7" d="M.27,136.24C44.89,193.89,130.53,276.81,240.86,251.9A144.39,144.39,0,0,1,0,146.52C0,143.06.08,139.64.27,136.24Z"/><path class="cls-8" d="M89.79,33.59c-20.47,34.84,2.85,86.55,52.1,115.48s105.76,24.15,126.23-10.69S265.27,51.83,216,22.89,110.27-1.26,89.79,33.59Z"/><path class="cls-9" d="M135,29.07c-12.23,20.81,3.87,53,36,71.81s68,17.26,80.22-3.55-3.86-53-35.94-71.81S147.27,8.26,135,29.07Z"/></g></g></svg>