<svg id="Calque_1" data-name="Calque 1" xmlns="http://www.w3.org/2000/svg" viewBox="0 0 459.83 379.21"><defs><style>.cls-1{fill:#002e52;}.cls-2{fill:#1d1d1b;}</style></defs><path class="cls-1" d="M166.57,231.13h7.49v2.17H169v2.22h3.44v2.08H169v2.22h5.5V242h-7.94Z"/><path class="cls-1" d="M176.28,236.36h4.37v1.94h-4.37Z"/><path class="cls-1" d="M187.27,242.22a6.88,6.88,0,0,1-2.51-.44,4.25,4.25,0,0,1-1.8-1.33,4.1,4.1,0,0,1-.8-2.21h2.46a2.18,2.18,0,0,0,.47,1,2.26,2.26,0,0,0,.91.66,3.42,3.42,0,0,0,1.27.22,3.7,3.7,0,0,0,1.56-.27.88.88,0,0,0,.58-.84.86.86,0,0,0-.27-.67,2,2,0,0,0-.76-.4c-.33-.09-.83-.22-1.52-.36h0a18.21,18.21,0,0,1-2.25-.62,3.8,3.8,0,0,1-1.53-1,2.49,2.49,0,0,1-.64-1.8,2.71,2.71,0,0,1,.64-1.84,3.8,3.8,0,0,1,1.69-1.08,7.26,7.26,0,0,1,2.28-.35,6.75,6.75,0,0,1,2.35.41,4.16,4.16,0,0,1,1.8,1.28,3.9,3.9,0,0,1,.84,2.2h-2.59a2,2,0,0,0-.81-1.34,2.93,2.93,0,0,0-1.69-.46,3.61,3.61,0,0,0-.94.12,1.76,1.76,0,0,0-.72.37.87.87,0,0,0-.28.66.81.81,0,0,0,.29.65,1.9,1.9,0,0,0,.75.39c.31.09.77.2,1.37.33l.11,0,.11,0,.07,0h.07a12.76,12.76,0,0,1,2.22.65,3.69,3.69,0,0,1,1.46,1A2.54,2.54,0,0,1,192,239a2.74,2.74,0,0,1-.55,1.72,3.64,3.64,0,0,1-1.62,1.13A7.45,7.45,0,0,1,187.27,242.22Z"/><path class="cls-1" d="M197.45,242.14a4.66,4.66,0,0,1-2.22-.5,3.69,3.69,0,0,1-1.49-1.41,4.09,4.09,0,0,1-.53-2.07,4,4,0,0,1,.56-2.1,3.91,3.91,0,0,1,1.54-1.45,4.44,4.44,0,0,1,2.14-.53,4.17,4.17,0,0,1,2.08.52A3.88,3.88,0,0,1,201,236a4,4,0,0,1,.54,2.05c0,.11,0,.22,0,.33l0,.31h-6.19a2.13,2.13,0,0,0,.39.85,2.07,2.07,0,0,0,.76.6,2.32,2.32,0,0,0,1,.22,2.35,2.35,0,0,0,1-.2,1.55,1.55,0,0,0,.67-.56h2.14a2.51,2.51,0,0,1-.64,1.24,3.67,3.67,0,0,1-1.34.92A4.59,4.59,0,0,1,197.45,242.14Zm2-4.84a2.16,2.16,0,0,0-.41-.76,1.88,1.88,0,0,0-.69-.51,2.39,2.39,0,0,0-1.82,0,1.83,1.83,0,0,0-.72.51,2.05,2.05,0,0,0-.43.76Z"/><path class="cls-1" d="M203.32,234.23h2v.9a2.79,2.79,0,0,1,1-.78,3.12,3.12,0,0,1,1.3-.27,3.06,3.06,0,0,1,1.48.36,2.45,2.45,0,0,1,1,1,3.25,3.25,0,0,1,.36,1.57v.52h-2.15v-.31a1.05,1.05,0,0,0-.34-.84,1.41,1.41,0,0,0-.92-.29,1.45,1.45,0,0,0-.79.22,1.5,1.5,0,0,0-.57.6,1.71,1.71,0,0,0-.22.87V242h-2.16Z"/><rect class="cls-1" x="211.67" y="234.23" width="2.16" height="7.75"/><path class="cls-1" d="M219.93,242.14a4.46,4.46,0,0,1-2.17-.52,3.7,3.7,0,0,1-1.52-1.44,3.92,3.92,0,0,1-.56-2.07,4,4,0,0,1,.56-2.07,3.84,3.84,0,0,1,1.52-1.44,4.81,4.81,0,0,1,4.35,0,3.84,3.84,0,0,1,1.52,1.44,4,4,0,0,1-1.52,5.58A4.56,4.56,0,0,1,219.93,242.14Zm0-2a2,2,0,0,0,1-.27,1.87,1.87,0,0,0,.73-.72,2.09,2.09,0,0,0,.27-1.06,2.05,2.05,0,0,0-.27-1.05,1.9,1.9,0,0,0-.73-.73,2,2,0,0,0-1-.27,2.05,2.05,0,0,0-1.05.27,1.87,1.87,0,0,0-.73.72,2,2,0,0,0-.26,1.06,2.08,2.08,0,0,0,.26,1.06,1.87,1.87,0,0,0,.73.72A2.05,2.05,0,0,0,219.93,240.16Z"/><path class="cls-1" d="M229.21,242.14a3.52,3.52,0,0,1-1.77-.43,3,3,0,0,1-1.19-1.24,3.94,3.94,0,0,1-.42-1.85v-4.39H228v4.05a2,2,0,0,0,.45,1.37,1.49,1.49,0,0,0,1.2.51,1.8,1.8,0,0,0,1-.25,1.73,1.73,0,0,0,.67-.67,2,2,0,0,0,.24-1v-4.05h2.15V242h-2v-.87a3.12,3.12,0,0,1-1.09.75A3.6,3.6,0,0,1,229.21,242.14Z"/><path class="cls-1" d="M239.43,242.21a5.13,5.13,0,0,1-2.79-.73,2.81,2.81,0,0,1-1.32-2.16h2.2a1.36,1.36,0,0,0,.64.89,2.41,2.41,0,0,0,1.28.32,2.71,2.71,0,0,0,.69-.08,1.63,1.63,0,0,0,.57-.24.53.53,0,0,0,.23-.45.38.38,0,0,0-.16-.33,1.51,1.51,0,0,0-.49-.22,8.82,8.82,0,0,0-.88-.18l-.2,0L239,239a13.28,13.28,0,0,1-1.77-.47,2.59,2.59,0,0,1-1.14-.73,1.82,1.82,0,0,1-.44-1.28,1.93,1.93,0,0,1,.53-1.41,3,3,0,0,1,1.34-.79,5.86,5.86,0,0,1,1.74-.25,4.75,4.75,0,0,1,2.62.68,2.66,2.66,0,0,1,1.24,2.12h-2.18a1.22,1.22,0,0,0-.67-.8,2.57,2.57,0,0,0-1.19-.27,2.33,2.33,0,0,0-.9.17.55.55,0,0,0-.39.53.46.46,0,0,0,.18.38,1.3,1.3,0,0,0,.53.23c.23.06.53.13.9.2l.2,0,.2.05.11,0,.11,0a10.73,10.73,0,0,1,1.65.44,3,3,0,0,1,1.08.71,1.65,1.65,0,0,1,.42,1.18,2,2,0,0,1-.5,1.36,3.1,3.1,0,0,1-1.35.85A5.87,5.87,0,0,1,239.43,242.21Z"/><path class="cls-1" d="M253.66,242.22a5.22,5.22,0,0,1-2.73-.73,5,5,0,0,1-1.93-2,5.94,5.94,0,0,1-.7-2.89,5.88,5.88,0,0,1,.72-2.92,5.25,5.25,0,0,1,2-2,6,6,0,0,1,5.36-.2,5,5,0,0,1,1.84,1.48,5.13,5.13,0,0,1,.95,2.17h-2.59a2.61,2.61,0,0,0-1-1.4,2.79,2.79,0,0,0-1.68-.51,2.94,2.94,0,0,0-1.61.45,3.16,3.16,0,0,0-1.1,1.22,4.25,4.25,0,0,0,0,3.58,3.05,3.05,0,0,0,2.78,1.68,3,3,0,0,0,1.24-.25,2.68,2.68,0,0,0,1-.69,2.92,2.92,0,0,0,.6-1H254v-2h5.26V242h-2.09v-1.23a4,4,0,0,1-1.48,1.09A5.06,5.06,0,0,1,253.66,242.22Z"/><path class="cls-1" d="M263.5,242.14a3,3,0,0,1-1.95-.58,2,2,0,0,1-.71-1.6,2,2,0,0,1,.44-1.29,2.87,2.87,0,0,1,1.3-.85,8.57,8.57,0,0,1,2.16-.38,3.84,3.84,0,0,0,1.14-.21.5.5,0,0,0,.33-.45.82.82,0,0,0-.4-.71,1.75,1.75,0,0,0-1-.27,1.79,1.79,0,0,0-1.06.3,1.48,1.48,0,0,0-.55.85h-2a3.16,3.16,0,0,1,.63-1.54,3.23,3.23,0,0,1,1.3-1,4.46,4.46,0,0,1,1.79-.34,4,4,0,0,1,1.8.39,2.91,2.91,0,0,1,1.19,1.11,3.26,3.26,0,0,1,.41,1.65v2.87h.88V242h-2.68v-1a3.47,3.47,0,0,1-1.29.81A4.71,4.71,0,0,1,263.5,242.14Zm.51-1.64a2.44,2.44,0,0,0,2-1,1.69,1.69,0,0,0,.33-1v-.09a1.43,1.43,0,0,1-.5.21,4.79,4.79,0,0,1-.82.15h-.15a3.61,3.61,0,0,0-1.41.32.75.75,0,0,0-.42.68.66.66,0,0,0,.25.55A1.21,1.21,0,0,0,264,240.5Z"/><path class="cls-1" d="M271,234.23h2v.9a2.94,2.94,0,0,1,1-.78,3.12,3.12,0,0,1,1.3-.27,3.34,3.34,0,0,1,1.47.32,3.3,3.3,0,0,1,1.1.9,3,3,0,0,1,1.13-.9,3.51,3.51,0,0,1,1.48-.32,3.75,3.75,0,0,1,1.81.42,2.89,2.89,0,0,1,1.2,1.2,3.64,3.64,0,0,1,.43,1.81V242h-2.17v-4.14a1.89,1.89,0,0,0-.44-1.3,1.45,1.45,0,0,0-1.13-.49,1.53,1.53,0,0,0-.84.25,1.87,1.87,0,0,0-.59.68,2,2,0,0,0-.23.95V242h-2.17v-4.14a1.89,1.89,0,0,0-.43-1.3,1.47,1.47,0,0,0-1.13-.49,1.53,1.53,0,0,0-.83.25,1.65,1.65,0,0,0-.6.68,2,2,0,0,0-.22.95V242H271Z"/><path class="cls-1" d="M289.83,242.14a4.66,4.66,0,0,1-2.22-.5,3.69,3.69,0,0,1-1.49-1.41,4.09,4.09,0,0,1-.53-2.07,4,4,0,0,1,.56-2.1,4,4,0,0,1,1.54-1.45,4.44,4.44,0,0,1,2.14-.53,4.17,4.17,0,0,1,2.08.52,3.88,3.88,0,0,1,1.47,1.43,4,4,0,0,1,.54,2.05c0,.11,0,.22,0,.33l0,.31h-6.19a2.13,2.13,0,0,0,.39.85,2.16,2.16,0,0,0,.76.6,2.51,2.51,0,0,0,2,0,1.55,1.55,0,0,0,.67-.56h2.14a2.51,2.51,0,0,1-.64,1.24,3.59,3.59,0,0,1-1.34.92A4.59,4.59,0,0,1,289.83,242.14Zm2-4.84a2,2,0,0,0-.41-.76,1.73,1.73,0,0,0-.69-.51,2.39,2.39,0,0,0-1.82,0,1.83,1.83,0,0,0-.72.51,1.9,1.9,0,0,0-.42.76Z"/><path class="cls-1" d="M161.79,181h13c.81,0,.7,1,0,1.62-1.68,1.3,4.87,12.57,7.91,17.77,3-5.26,9.1-16.36,6.44-17.77-.76-.43-.7-1.62.11-1.62h8.72c.81,0,.87,1.19-.11,1.62-3.52,1.57-9.48,12.46-13.86,19.94,0,7.09-.28,13.21,2.27,14.73.7.43.81,1.62,0,1.62H172.46c-.81,0-.7-1.19,0-1.62,2.49-1.52,2.33-11,2.28-14.73-4.39-7.48-10-18.58-13-19.94C160.76,182.21,161,181,161.79,181Z"/><path class="cls-1" d="M189.9,205.39A14.6,14.6,0,1,1,204.53,220,14.66,14.66,0,0,1,189.9,205.39Zm9.7,2.33c2.55,5.26,6,9.7,9.16,9.7a3.1,3.1,0,0,0,1.4-.33c3.36-1.62,2.06-8-.81-14-2.49-5.25-6-9.69-9-9.69a3.09,3.09,0,0,0-1.4.32C195.54,195.32,196.78,201.65,199.6,207.72Z"/><path class="cls-1" d="M220.35,191.85l10-.87a1.29,1.29,0,0,1,1.51,1.41c0,3.36,0,7.26,0,11.32,0,3.36-1.19,13.6,4,13.6,6,0,5.58-7,5.58-7h.05v-9.59c0-2,.27-5.63-2.27-7.15-.71-.43-.81-1.57,0-1.62l9.91-.87a1.33,1.33,0,0,1,1.57,1.41v11.86c0,4.61-.38,11.65,2.28,13,.81.44.81,1.57-.27,1.57-5.85,0-9.21-1.35-10.51-4.33a6.89,6.89,0,0,1-6.77,4.33c-5.8,0-12.79-2.81-12.79-13.48,0-4.61.27-10.46-2.27-12C219.64,193,219.53,191.9,220.35,191.85Z"/><path class="cls-1" d="M256.8,191.8l9.92-.87a1.39,1.39,0,0,1,1.57,1.46v5a10.69,10.69,0,0,1,10.18-6.56c8.67,0,7.42,9.05,1.73,9.05-4.06,0-3.84-5.26-6.71-5.26-3.52,0-5.15,7.69-5.2,8.24v1.4c0,4.61-.27,11.54,2.27,13.06.71.43.81,1.62,0,1.62H256.8c-.81,0-.7-1.19,0-1.62,2.22-1.35,2.28-6.18,2.28-8.94V201c0-2.81-.17-6.33-2.28-7.58C256.1,193,256,191.85,256.8,191.8Z"/><path class="cls-1" d="M294.38,206.37c1.68,0,3.47,1,4.66,3.62,1.84,4.07,3.09,8.56,8.07,8.56,2.93,0,5.74-2.7,5.74-5.09,0-10.07-21.94-11.48-21.94-24.1,0-4.77,4.93-9.27,13.28-9.27s13.32,2,15.81,6a5,5,0,0,1-4.11,7.91,3.76,3.76,0,0,1-3.36-2c-3-5.42-5.58-10.29-8.78-10.29-2.6,0-3.63,2.27-3.63,4.11,0,10.73,22,13.38,22,24.16,0,6.51-7.59,10.19-15.88,10.19-5.79,0-14-2-16-7.1A4.77,4.77,0,0,1,294.38,206.37Z"/><path class="cls-1" d="M322,192.82a.77.77,0,0,1,.81-.81h1.24c3.9,0,7.59-2.55,7.59-7.91a.78.78,0,0,1,.81-.76.75.75,0,0,1,.81.76V192h4.66a.77.77,0,0,1,.81.81.74.74,0,0,1-.81.82h-4.66v10.78c0,4.6-.27,11.53,2.28,13.05.7.43.81,1.63-1.63,1.63-5.47,0-9.86-2.55-9.86-7.53V193.64h-1.24A.77.77,0,0,1,322,192.82Z"/><path class="cls-1" d="M350.88,204.2c3.41-1.36,6.88-1.79,7.09-4.93-.16-4-1-6.66-4-6.66s-3.79,3.52-4.71,5.74a4.25,4.25,0,0,1-4,2.87,4.11,4.11,0,0,1-4.17-3.85c-.27-5.68,8.88-6.39,12.73-6.39,6.34,0,13.27,2.76,13.27,13.44,0,4.6-.27,11.48,2.27,13,.71.43.82,1.68-2.11,1.68-5.9,0-8.12-2-8.94-4.72-1.3,2.82-3.79,4.72-8,4.72-7.26,0-11.49-3-11.49-6.94C338.85,207.23,347,205.72,350.88,204.2Zm-2.82,8.18c0,1.3.87,4.87,4.23,4.87,4.76,0,5.63-5.79,5.63-9.48,0-1.89.05-3.73.05-5.41a20,20,0,0,1-5.41,3C350,206.47,348.06,208.21,348.06,212.38Z"/><path class="cls-1" d="M372.87,192l9.91-.87a1.4,1.4,0,0,1,1.57,1.46v5A10.71,10.71,0,0,1,394.54,191c8.67,0,7.42,9.05,1.73,9.05-4.06,0-3.84-5.26-6.72-5.26-3.52,0-5.14,7.69-5.2,8.24v1.41c0,4.6-.27,11.53,2.28,13.05.7.43.81,1.63,0,1.63H372.87c-.81,0-.7-1.2,0-1.63,2.22-1.35,2.28-6.18,2.28-8.94v-7.37c0-2.81-.17-6.33-2.28-7.58C372.17,193.15,372.06,192,372.87,192Z"/><path class="cls-1" d="M230.89,142.86l2.3,7.14a.4.4,0,0,0,.58.21l6.36-4a.38.38,0,0,1,.56.47l-2.82,6.95a.39.39,0,0,0,.31.54l7.43,1a.39.39,0,0,1,.13.73l-6.63,3.5a.39.39,0,0,0-.11.61l5,5.57a.39.39,0,0,1-.37.64l-7.34-1.58a.39.39,0,0,0-.47.4l.28,7.5a.39.39,0,0,1-.7.25l-4.6-5.92a.4.4,0,0,0-.62,0l-4.6,5.92a.39.39,0,0,1-.7-.25l.28-7.5a.39.39,0,0,0-.47-.4l-7.34,1.58a.39.39,0,0,1-.37-.64l5-5.57a.39.39,0,0,0-.11-.61l-6.63-3.5a.39.39,0,0,1,.13-.73l7.43-1a.4.4,0,0,0,.31-.54l-2.83-6.95a.39.39,0,0,1,.57-.47l6.36,4a.4.4,0,0,0,.58-.21l2.3-7.14A.39.39,0,0,1,230.89,142.86Z"/><path class="cls-1" d="M230.52,179.91a22.2,22.2,0,0,1-8.2-42.84,1.07,1.07,0,0,1,1.39.6,1.08,1.08,0,0,1-.6,1.4,20.06,20.06,0,1,0,26,26.18,1.09,1.09,0,0,1,1.41-.59,1.08,1.08,0,0,1,.59,1.4,22.17,22.17,0,0,1-20.58,13.85Z"/><path class="cls-1" d="M95.93,218.85v0c-.81,0-1-.22-1.41-1.47-.76-2.39-4.72-13.35-6.3-17.53-.6-1.63-1.19-3.37-1.84-5-2.77,7.6-6.84,18.94-8.2,22.85a1.68,1.68,0,0,1-1.57,1.2H76v0c-.82,0-1-.22-1.41-1.47-.76-2.39-4.72-13.35-6.3-17.53-1.31-3.61-2.76-7.55-4.23-10.78s-3-5.9-4.4-6.59c-.87-.44-.81-1.63,0-1.63H72.86c.82,0,.82,1.19,0,1.63-1.9,1,2,10,4.67,17.37.65,1.73,1.57,4.18,2.17,6,1.9-5.27,4-11.07,5.21-14.6-1.79-4.34-3.64-7.93-5.32-8.74-.87-.44-.81-1.63,0-1.63H92.78c.82,0,.82,1.19,0,1.63-1.9,1,2,10,4.67,17.37.65,1.73,1.57,4.18,2.17,6,1-2.77,1.85-5.16,2.17-6,2.66-7.33,4.09-9.06.35-11.12-.82-.44-.82-1.63,0-1.63h10.47c.82,0,.87,1.19,0,1.63-2.71,1.35-5.45,3.79-8.1,11.12-1.36,3.69-5.05,13.84-6.41,17.8a1.68,1.68,0,0,1-1.57,1.2Z"/><path class="cls-1" d="M158.24,204.14c0,4.61-.27,11.56,2.28,13.08.7.43.81,1.63,0,1.63H146.73c-.81,0-.7-1.2,0-1.63,2.23-1.36,2.28-8.47,2.28-11.35,0-3.36,1.19-13.62-4.34-13.62-4.62,0-5.21,4.72-5.27,6.4v5.49c0,4.61-.27,11.56,2.28,13.08.71.43.82,1.63,0,1.63H127.9c-.82,0-.71-1.2,0-1.63,2.22-1.36,2.28-6.19,2.28-9v-7.38c0-2.82-.17-6.35-2.28-7.6-.71-.43-.82-1.57,0-1.63l9.93-.87a1.4,1.4,0,0,1,1.57,1.47v1.36a6.86,6.86,0,0,1,6-2.94C151.24,190.67,158.24,193.44,158.24,204.14Z"/><path class="cls-1" d="M124.42,218.66a.5.5,0,0,1-.43.19H110.2c-.55,0-.68-.55-.49-1a1.55,1.55,0,0,1,.12-.22,1.19,1.19,0,0,1,.37-.37l.21-.14a4.52,4.52,0,0,0,.53-.43,4.32,4.32,0,0,0,1-1.52c0-.12.09-.24.13-.36a15,15,0,0,0,.43-4.39V196.62c0-2.77,1.17-5.21,4-5.45l1.31-.12.48,0,.26,0,.41,0,.54,0,.69-.06a1.39,1.39,0,0,1,1.2.38h0c0,.05.09.11.14.17l0,.06a1.24,1.24,0,0,1,.1.2h0a.74.74,0,0,1,0,.14,1.51,1.51,0,0,1,.06.44v18.19c0,2.29-.19,4.47,1.29,6l.28.28a8.06,8.06,0,0,0,.71.5,1.16,1.16,0,0,1,.24.2A1,1,0,0,1,124.42,218.66Z"/><circle class="cls-1" cx="117.09" cy="179.76" r="4.96"/><circle class="cls-1" cx="212.75" cy="232.01" r="1.34"/><circle class="cls-2" cx="191.97" cy="190.46" r="1.34"/></svg>